<?xml version="1.0" standalone="no"?>
<!DOCTYPE svg PUBLIC "-//W3C//DTD SVG 20010904//EN"
 "http://www.w3.org/TR/2001/REC-SVG-20010904/DTD/svg10.dtd">
<svg version="1.0" xmlns="http://www.w3.org/2000/svg"
 width="500.000000pt" height="500.000000pt" viewBox="0 0 500.000000 500.000000"
 preserveAspectRatio="xMidYMid meet">
<metadata>
Created by potrace 1.14, written by Peter Selinger 2001-2017
</metadata>
<g transform="translate(0.000000,500.000000) scale(0.100000,-0.100000)"
fill="#000000" stroke="none">
<path d="M927 3390 c-245 -41 -468 -193 -599 -405 -72 -117 -118 -286 -118
-435 0 -384 251 -715 623 -821 117 -34 335 -34 452 -1 288 83 518 316 597 607
29 107 31 308 4 409 -47 175 -121 302 -250 423 -129 121 -239 179 -410 214
-94 19 -215 23 -299 9z m148 -190 c0 -11 -18 -17 -76 -22 -301 -27 -550 -278
-567 -573 -5 -98 4 -113 122 -189 92 -60 149 -119 178 -183 25 -56 48 -164 48
-227 l0 -49 -78 5 c-96 6 -172 38 -230 99 -61 62 -85 133 -85 244 -1 342 9
412 72 540 68 138 169 239 306 305 125 61 310 90 310 50z m161 -17 c-3 -21 -9
-48 -12 -59 -5 -19 1 -24 45 -39 55 -18 69 -31 53 -47 -8 -8 -25 -5 -59 10
-26 11 -49 19 -51 17 -2 -2 -25 -89 -52 -194 l-48 -191 162 -2 c154 -3 161 -4
160 -23 0 -11 -96 -156 -212 -323 -117 -167 -212 -305 -212 -308 0 -10 131 -3
183 11 233 61 389 255 404 503 4 68 9 92 19 92 14 0 17 -25 14 -125 -4 -161
-110 -337 -262 -435 -86 -56 -172 -81 -292 -86 l-98 -4 -34 -47 c-41 -58 -61
-62 -55 -13 9 81 9 81 -39 100 -25 10 -46 25 -48 34 -4 20 11 20 65 0 24 -9
45 -15 47 -13 3 4 96 374 96 384 0 3 -74 5 -165 5 -127 0 -165 3 -165 13 0 7
99 154 220 327 l220 315 -43 3 c-24 2 -77 -4 -118 -12 -250 -52 -425 -260
-432 -514 -2 -68 -6 -87 -17 -87 -11 0 -16 16 -18 65 -10 206 111 416 295 513
92 48 169 67 273 67 l85 0 34 50 c42 62 66 67 57 13z m238 -48 c118 -25 184
-76 233 -180 l28 -60 -3 -210 c-3 -248 -15 -314 -74 -434 -63 -127 -170 -232
-298 -294 -138 -66 -347 -98 -316 -48 4 6 23 11 42 11 54 0 173 30 239 60 206
94 359 315 366 531 3 78 -17 105 -128 179 -102 68 -140 109 -179 194 -26 58
-53 218 -41 249 8 21 40 21 131 2z"/>
<path d="M441 2421 c34 -154 153 -327 270 -395 l32 -19 -6 59 c-15 138 -60
216 -167 291 -41 28 -89 63 -106 77 l-32 26 9 -39z"/>
<path d="M420 2293 c0 -67 33 -155 77 -203 34 -38 92 -71 148 -84 27 -7 25 -3
-28 44 -70 63 -140 159 -172 237 l-24 58 -1 -52z"/>
<path d="M955 2781 l-221 -316 158 -3 c133 -2 158 -5 158 -18 0 -8 -23 -105
-50 -216 -28 -110 -49 -202 -47 -204 2 -3 101 134 219 303 l215 308 -158 3
c-118 2 -159 6 -159 15 0 6 25 109 55 227 29 118 53 215 52 216 -1 1 -101
-141 -222 -315z"/>
<path d="M1489 3067 c63 -50 127 -132 173 -222 l40 -80 -5 66 c-8 117 -62 199
-162 245 -75 36 -97 31 -46 -9z"/>
<path d="M1380 3063 c0 -49 30 -156 55 -198 32 -55 75 -94 171 -157 90 -59 88
-61 52 49 -34 109 -130 238 -225 304 -23 16 -44 29 -47 29 -3 0 -6 -12 -6 -27z"/>
<path d="M2340 2920 l0 -300 190 0 190 0 0 30 0 30 -155 0 -155 0 0 105 0 105
145 0 145 0 0 30 0 30 -145 0 -145 0 0 100 0 100 155 0 155 0 0 35 0 35 -190
0 -190 0 0 -300z"/>
<path d="M2817 3044 c-4 -4 -7 -101 -7 -216 l0 -208 35 0 35 0 0 151 0 151 34
34 c29 29 41 34 83 34 51 0 82 -18 102 -57 7 -13 11 -80 11 -167 l0 -146 36 0
36 0 -4 158 c-4 174 -12 202 -70 243 -23 17 -50 24 -93 27 -52 3 -65 0 -98
-22 -46 -31 -45 -31 -49 -3 -3 22 -36 36 -51 21z"/>
<path d="M3380 3039 c-105 -42 -156 -199 -100 -314 66 -137 254 -153 339 -29
28 40 27 44 -13 44 -25 0 -38 -6 -50 -25 -22 -34 -85 -51 -134 -37 -44 13 -88
56 -97 95 l-7 27 166 0 166 0 0 50 c0 122 -76 201 -192 199 -29 0 -64 -5 -78
-10z m154 -70 c28 -22 56 -68 56 -94 0 -13 -20 -15 -135 -15 -149 0 -151 1
-120 61 35 66 143 92 199 48z"/>
<path d="M3730 2835 l0 -215 30 0 30 0 0 140 c0 164 10 201 60 219 18 6 48 11
66 11 31 0 34 2 34 31 l0 31 -55 -4 c-31 -3 -63 -12 -73 -21 -24 -22 -29 -21
-35 3 -3 14 -14 20 -31 20 l-26 0 0 -215z"/>
<path d="M4077 3029 c-58 -31 -91 -88 -95 -170 -8 -128 59 -208 178 -217 49
-4 66 0 104 21 l46 26 0 -57 c0 -67 -17 -98 -66 -118 -68 -29 -152 -7 -180 47
-10 20 -22 29 -39 29 -40 0 -33 -44 13 -90 104 -104 296 -65 331 67 7 26 10
123 9 260 l-3 218 -27 3 c-24 3 -28 0 -28 -22 0 -31 -14 -41 -31 -20 -39 47
-145 59 -212 23z m177 -60 c81 -64 73 -212 -14 -256 -34 -17 -95 -16 -130 2
-36 19 -70 82 -70 131 0 49 27 103 64 125 43 26 115 25 150 -2z"/>
<path d="M4430 3046 c0 -2 38 -105 85 -228 86 -225 94 -258 64 -295 -7 -7 -31
-13 -55 -13 -42 0 -44 -1 -44 -30 0 -30 1 -30 54 -30 86 0 90 6 200 316 53
150 96 275 96 279 0 3 -15 5 -32 3 l-33 -3 -60 -178 c-33 -97 -64 -176 -69
-174 -4 1 -36 77 -70 167 -34 91 -65 171 -70 178 -6 11 -66 18 -66 8z"/>
<path d="M2340 2070 l0 -300 35 0 35 0 0 257 c0 153 4 253 9 248 7 -8 181
-489 181 -501 0 -2 24 -4 53 -4 l52 0 89 255 c50 140 93 255 98 255 4 0 8
-115 8 -255 l0 -255 35 0 35 0 -2 298 -3 297 -60 0 -60 0 -90 -254 c-49 -140
-95 -256 -101 -258 -6 -2 -49 104 -101 254 l-91 258 -61 3 -61 3 0 -301z"/>
<path d="M3090 2071 l0 -301 180 0 180 0 0 30 0 30 -145 0 -145 0 -2 268 -3
267 -32 3 -33 3 0 -300z"/>
</g>
</svg>
